<svg width="691" height="581" viewBox="0 0 691 581" fill="none" xmlns="http://www.w3.org/2000/svg">
<g clip-path="url(#clip0)">
<rect width="690.351" height="581" transform="translate(0.648438)" fill="white"/>
<rect x="0.648438" width="1600" height="1200" fill="#EADDCD"/>
<mask id="mask0" style="mask-type:alpha" maskUnits="userSpaceOnUse" x="0" y="0" width="1601" height="1200">
<rect x="0.648438" width="1600" height="1200" fill="white"/>
</mask>
<g mask="url(#mask0)">
<path fill-rule="evenodd" clip-rule="evenodd" d="M-27.4681 -4.12403C46.6892 -7.68701 120.444 -18.0136 194.702 -19C191.029 29.8955 189.892 78.9419 186.964 127.888C115.192 132.638 44.1737 145.823 -27.8203 147.544C-28.7862 96.9883 -28.2932 46.4221 -27.4681 -4.12403Z" fill="#228085"/>
<path fill-rule="evenodd" clip-rule="evenodd" d="M428.8 -7.41517C492.463 0.536131 542.502 1.5225 603.88 -2.22166C605.611 50.8004 611.557 103.792 612.825 157.016C546.909 159.532 487.05 149.135 420.811 139.332C354.573 129.528 281.502 123.338 213.342 128.119C215.857 79.1533 216.089 30.0163 221.562 -18.708C288.264 -20.2379 365.138 -15.3564 428.8 -7.41517Z" fill="#D55151"/>
<path fill-rule="evenodd" clip-rule="evenodd" d="M603.045 -2.34243C670.591 -7.9486 738.068 -5.36191 805.715 -4.43594C805.534 45.8887 806.379 96.2134 806.328 146.538C741.579 147.786 677.102 153.584 612.453 156.996C611.578 103.712 606.516 50.7803 603.045 -2.34243Z" fill="#242C2D"/>
<path fill-rule="evenodd" clip-rule="evenodd" d="M198.44 321.265C195.592 374.821 195.763 399.359 195.129 446.342C129.353 447.036 63.86 448.587 -1.99609 451.083C-1.99609 406.093 -1.99609 389.184 -1.69423 337.238C-1.39237 285.293 -0.567283 203.927 -1.99609 145.973C69.857 141.665 141.066 128.884 212.819 126.569C209.065 185.901 201.267 267.7 198.44 321.265Z" fill="#F4B943"/>
<path fill-rule="evenodd" clip-rule="evenodd" d="M195.804 463.886C194.445 410.874 195.804 336.161 200.704 281.217C205.604 226.273 209.388 180.427 212.96 127.646C283.193 124.063 353.194 129.931 422.944 139.04C416.746 190.844 409.803 234.717 398.796 288.162C387.788 341.607 383.904 415.825 389.015 468.918C394.127 522.011 400.496 558.697 408.978 607.814C340.989 594.619 271.863 597.306 203.189 599.44C201.076 550.535 197.172 516.847 195.804 463.886Z" fill="#228085"/>
<path fill-rule="evenodd" clip-rule="evenodd" d="M829.461 295.147C761.944 295.892 665.852 318.84 594.29 318.769C522.729 318.699 466.734 292.953 398.996 284.478C409.249 236.458 418.265 188.368 422.139 139.634C487.914 148.471 547.482 160.607 616.246 157.094C685.01 153.581 773.61 142.814 839.336 142.321C905.061 141.828 948.796 145.411 1009.9 142.321C1006.96 191.156 1001.25 239.83 997.909 288.393C936.098 291.372 896.987 294.392 829.461 295.147Z" fill="#EADDCD"/>
<path fill-rule="evenodd" clip-rule="evenodd" d="M399.378 282.402C463.775 291.139 529.171 316.49 594.846 316.883C585.006 371.586 576.359 428.648 580.152 484.176C514.94 476.557 451.911 457.404 387.394 445.93C384.938 391.73 389.406 335.686 399.378 282.402Z" fill="#242C2D"/>
<path fill-rule="evenodd" clip-rule="evenodd" d="M771.845 456.609C708.967 473.035 645.757 490.96 580.002 484.186C577.587 428.527 578.714 373.382 592.378 318.789C664.825 318.729 752.525 295.952 820.595 295.177C888.665 294.402 933.964 291.534 997.587 288.333C987.525 334.531 983.137 380.608 981.839 427.682C980.541 474.756 986.565 522.492 991.969 569.304C929.785 567.754 867.615 578.163 810.936 604.362C796.094 555.124 774.612 508.695 771.845 456.609Z" fill="#D55151"/>
<path fill-rule="evenodd" clip-rule="evenodd" d="M-1.98633 449.714C63.9503 449.493 129.676 443.675 195.522 440.766C196.125 493.426 200.814 545.905 203.149 598.484C134.858 599.027 66.6469 600.678 -1.61403 600.769C-1.63416 550.444 -1.75826 500.092 -1.98633 449.714Z" fill="#1A9E78"/>
<path fill-rule="evenodd" clip-rule="evenodd" d="M580.092 484.015C645.496 491.232 709.118 472.753 771.845 456.619C774.642 508.654 796.044 555.024 810.906 604.352C748.491 632.976 686.257 647.661 616.829 644.169C547.401 640.676 477.61 619.379 408.907 606.989C399.358 553.564 390.201 500.119 387.414 445.97C452.022 457.233 514.699 476.819 580.092 484.015Z" fill="#5AA7B2"/>
</g>
</g>
<defs>
<clipPath id="clip0">
<rect width="690.351" height="581" fill="white" transform="translate(0.648438)"/>
</clipPath>
</defs>
</svg>
